#!OML:ASF F:\VICON\USERDATA\INSTALL\rory3\rory3.ASF
:FULLY-SPECIFIED
:DEGREES
757
root 0.880287 15.5938 3.02868 7.87282 -39.2583 12.1469
lowerback -1.69586 5.85145 6.96365
upperback 4.80004 7.54704 -1.39892
thorax 7.10726 4.12387 -4.68059
lowerneck 0.758891 -10.6744 -12.425
upperneck 46.3428 -20.2708 9.28237
head 21.2206 -9.5047 3.53532
rclavicle -4.13472e-014 9.54166e-015
rhumerus -20.8629 19.1736 -95.5922
rradius 18.6077
rwrist 17.9745
rhand -27.8209 -55.1679
rfingers 7.12502
rthumb -1.21297 -85.1442
lclavicle -4.13472e-014 9.54166e-015
lhumerus -49.4228 -85.4619 125.569
lradius 83.556
lwrist 27.4052
lhand 0.985977 -21.4976
lfingers 7.12502
lthumb 26.5344 6.66403
rfemur -32.2875 -1.61037 -3.39167
rtibia 76.9495
rfoot -4.73151 -12.0479
rtoes -34.8934
lfemur -52.1982 -21.6278 -29.029
ltibia 58.4691
lfoot -20.5394 -3.23517
ltoes 15.6879
758
root 0.877219 15.5857 3.02656 7.83352 -39.2234 12.2305
lowerback -1.64836 5.82334 6.87146
upperback 4.72739 7.51731 -1.37239
thorax 6.97921 4.09846 -4.61577
lowerneck 1.00887 -10.604 -12.7072
upperneck 46.2503 -20.2332 9.52329
head 21.1839 -9.53456 3.73298
rclavicle -3.10104e-014 4.29375e-014
rhumerus -21.0012 19.1595 -95.5927
rradius 18.6181
rwrist 18.0563
rhand -27.6293 -55.3238
rfingers 7.12502
rthumb -1.02793 -85.3011
lclavicle -3.10104e-014 4.29375e-014
lhumerus -50.3512 -85.2861 126.57
lradius 83.5269
lwrist 27.2277
lhand 1.21338 -21.6753
lfingers 7.12502
lthumb 26.7521 6.4532
rfemur -32.0368 -1.44819 -3.60239
rtibia 76.9512
rfoot -6.59705 -11.1916
rtoes -31.6139
lfemur -52.3235 -21.74 -28.9886
ltibia 58.6026
lfoot -20.5375 -3.58435
ltoes 16.5457
759
root 0.874745 15.598 3.03719 7.79408 -39.232 12.3049
lowerback -1.7125 5.82591 6.81565
upperback 4.72359 7.5188 -1.36198
thorax 7.0024 4.09621 -4.56783
lowerneck 1.08015 -10.5714 -12.77
upperneck 46.2357 -20.1918 9.56119
head 21.162 -9.5299 3.77753
rclavicle 1.55052e-013 -7.95139e-015
rhumerus -21.0359 18.9761 -95.5378
rradius 18.6508
rwrist 18.4498
rhand -27.3419 -55.6483
rfingers 7.12502
rthumb -0.750311 -85.6267
lclavicle 1.55052e-013 -7.95139e-015
lhumerus -49.5839 -85.2362 125.861
lradius 83.4552
lwrist 26.9458
lhand 2.07764 -22.1109
lfingers 7.12502
lthumb 27.5788 5.88843
rfemur -32.2781 -1.7005 -3.48176
rtibia 76.9359
rfoot -4.60161 -11.9604
rtoes -37.2503
lfemur -52.2412 -21.7873 -29.066
ltibia 58.5496
lfoot -20.5402 -3.56105
ltoes 16.8291
760
root 0.870817 15.5562 3.03002 7.75965 -39.2414 12.3829
lowerback -1.75207 5.8374 6.77807
upperback 4.70991 7.53434 -1.36814
thorax 7.00798 4.10189 -4.54873
lowerneck 1.14087 -10.5374 -12.7242
upperneck 46.2055 -20.1011 9.49273
head 21.0615 -9.49424 3.75623
rclavicle -3.73715e-014 -3.18055e-014
rhumerus -21.1269 18.9373 -95.5351
rradius 18.6987
rwrist 18.5604
rhand -27.2903 -55.8446
rfingers 7.12502
rthumb -0.700451 -85.8232
lclavicle -3.73715e-014 -3.18055e-014
lhumerus -48.7794 -85.2639 125.045
lradius 83.476
lwrist 26.9668
lhand 2.77217 -21.9813
lfingers 7.12502
lthumb 28.2428 5.91011
rfemur -31.0224 -0.890623 -4.34242
rtibia 76.9338
rfoot -12.7725 -4.10349
rtoes 8.31236
lfemur -52.4359 -21.7775 -29.115
ltibia 58.6847
lfoot -20.4464 -3.55254
ltoes 16.8998
761
root 0.869452 15.5985 3.04512 7.6303 -39.2231 12.6331
lowerback -1.8092 5.78387 6.63518
upperback 4.68202 7.46988 -1.41369
thorax 6.98718 4.06326 -4.52196
lowerneck 1.13115 -10.5133 -12.7013
upperneck 46.3291 -19.9765 9.24115
head 21.0597 -9.46184 3.65088
rclavicle -2.78299e-014 -4.77083e-015
rhumerus -21.2085 19.2169 -95.6478
rradius 18.6685
rwrist 18.4131
rhand -27.72 -55.5101
rfingers 7.12502
rthumb -1.11545 -85.4869
lclavicle -2.78299e-014 -4.77083e-015
lhumerus -47.8921 -85.1298 124.095
lradius 83.5663
lwrist 27.2454
lhand 3.14687 -21.098
lfingers 7.12502
lthumb 28.6009 6.73367
rfemur -32.2714 -1.95449 -3.81641
rtibia 76.9542
rfoot -4.63637 -11.8196
rtoes -37.3265
lfemur -52.1376 -21.8957 -29.3355
ltibia 58.3955
lfoot -20.4373 -3.54344
ltoes 17.1832
762
root 0.865623 15.5967 3.04331 7.48359 -39.2948 12.9498
lowerback -1.84254 5.78578 6.37874
upperback 4.641 7.48816 -1.47546
thorax 6.93609 4.0593 -4.4441
lowerneck 1.14375 -10.5758 -12.6742
upperneck 46.4789 -20.0182 9.01587
head 21.1245 -9.49157 3.52573
rclavicle 2.22639e-014 4.77083e-014
rhumerus -21.2588 19.355 -95.7156
rradius 18.6334
rwrist 18.3361
rhand -28.157 -55.1947
rfingers 7.12502
rthumb -1.5375 -85.169
lclavicle 2.22639e-014 4.77083e-014
lhumerus -47.4229 -84.8626 123.694
lradius 83.4893
lwrist 27.257
lhand 4.52358 -20.9567
lfingers 7.12502
lthumb 29.9155 6.64588
rfemur -32.3576 -1.99047 -4.12621
rtibia 77.0075
rfoot -4.796 -11.7792
rtoes -37.1236
lfemur -52.1251 -21.9242 -29.5768
ltibia 58.3118
lfoot -20.4417 -3.47777
ltoes 17.6399
763
root 0.862905 15.5956 3.03552 7.38715 -39.3733 13.1581
lowerback -1.75596 5.83452 6.14164
upperback 4.60393 7.57186 -1.49337
thorax 6.8255 4.08614 -4.33592
lowerneck 1.16763 -10.6743 -12.6717
upperneck 46.5581 -20.1509 8.90904
head 21.1885 -9.54977 3.44582
rclavicle 5.80451e-014 -9.54166e-015
rhumerus -21.2661 19.388 -95.6785
rradius 18.6222
rwrist 18.1699
rhand -28.0786 -55.2659
rfingers 7.12502
rthumb -1.46186 -85.2406
lclavicle 5.80451e-014 -9.54166e-015
lhumerus -47.6127 -84.7731 124
lradius 83.4213
lwrist 27.2689
lhand 6.99323 -21.4129
lfingers 7.12502
lthumb 32.2692 5.73866
rfemur -32.486 -1.93169 -4.30677
rtibia 77.0819
rfoot -4.97359 -11.6454
rtoes -36.8023
lfemur -52.1255 -21.9605 -29.6751
ltibia 58.1478
lfoot -20.3566 -3.45431
ltoes 18.0549
764
root 0.861013 15.5958 3.02985 7.27601 -39.3975 13.2977
lowerback -1.67259 5.85249 5.99917
upperback 4.63458 7.60599 -1.48551
thorax 6.79291 4.09571 -4.25355
lowerneck 1.10591 -10.7158 -12.7817
upperneck 46.5814 -20.2363 8.97401
head 21.2957 -9.59146 3.47674
rclavicle 5.32743e-014 -4.92986e-014
rhumerus -21.2164 19.3475 -95.5548
rradius 18.5908
rwrist 18.2497
rhand -28.0291 -55.1432
rfingers 7.12502
rthumb -1.41397 -85.1182
lclavicle 5.32743e-014 -4.92986e-014
lhumerus -47.2868 -84.8933 123.721
lradius 83.4787
lwrist 27.4513
lhand 9.33667 -21.5885
lfingers 7.12502
lthumb 34.4969 5.08354
rfemur -32.5437 -1.89763 -4.39347
rtibia 77.1231
rfoot -4.76439 -11.6898
rtoes -37.0232
lfemur -52.1173 -22.0503 -29.7136
ltibia 58.1128
lfoot -20.2937 -3.47308
ltoes 18.2939
765
root 0.857856 15.596 3.03383 7.18118 -39.4437 13.3774
lowerback -1.68323 5.91232 5.98775
upperback 4.68795 7.68643 -1.50845
thorax 6.86892 4.1385 -4.25784
lowerneck 1.12283 -10.7338 -12.8956
upperneck 46.5209 -20.3579 9.22883
head 21.3723 -9.638 3.60377
rclavicle -5.48646e-014 3.65764e-014
rhumerus -21.0146 19.0147 -95.4259
rradius 18.3735
rwrist 18.5295
rhand -28.346 -54.7976
rfingers 7.12502
rthumb -1.72009 -84.7704
lclavicle -5.48646e-014 3.65764e-014
lhumerus -47.3536 -85.1281 123.819
lradius 83.5517
lwrist 27.8015
lhand 9.78242 -21.4634
lfingers 7.12502
lthumb 34.9199 5.11131
rfemur -32.4565 -1.82059 -4.47908
rtibia 77.0875
rfoot -4.73997 -11.7131
rtoes -36.8686
lfemur -52.0489 -22.1058 -29.7754
ltibia 58.1143
lfoot -20.2579 -3.36367
ltoes 18.061
766
root 0.854394 15.5997 3.04038 7.24341 -39.5184 13.2362
lowerback -1.71891 5.99001 6.1822
upperback 4.71788 7.77967 -1.52399
thorax 6.96591 4.19772 -4.36314
lowerneck 1.20338 -10.7277 -12.9288
upperneck 46.3966 -20.4385 9.48592
head 21.3439 -9.65913 3.72926
rclavicle 5.48646e-014 1.43125e-014
rhumerus -20.7836 18.7235 -95.3921
rradius 18.1563
rwrist 18.5574
rhand -28.5245 -54.6726
rfingers 7.12502
rthumb -1.89248 -84.644
lclavicle 5.48646e-014 1.43125e-014
lhumerus -48.0302 -85.2034 124.511
lradius 83.5258
lwrist 28.0365
lhand 9.24469 -21.0039
lfingers 7.12502
lthumb 34.4096 5.68796
rfemur -32.3134 -1.64357 -4.41202
rtibia 76.9926
rfoot -5.17164 -11.6118
rtoes -35.7941
lfemur -52.0068 -22.11 -29.694
ltibia 58.1365
lfoot -20.341 -3.18633
ltoes 18.2945
767
root 0.850129 15.6048 3.04228 7.34012 -39.59 13.0678
lowerback -1.68621 6.00681 6.31159
upperback 4.70021 7.79623 -1.49413
thorax 6.94536 4.21057 -4.40488
lowerneck 1.22355 -10.6799 -12.9965
upperneck 46.3681 -20.397 9.58847
head 21.3475 -9.64939 3.80457
rclavicle 6.83819e-014 6.36111e-015
rhumerus -20.7327 18.6605 -95.3956
rradius 18.0764
rwrist 18.6294
rhand -28.5149 -54.6225
rfingers 7.12502
rthumb -1.88324 -84.5939
lclavicle 6.83819e-014 6.36111e-015
lhumerus -48.7171 -85.0684 125.232
lradius 83.3975
lwrist 27.8716
lhand 9.10972 -20.8264
lfingers 7.12502
lthumb 34.2815 5.89445
rfemur -32.2622 -1.49787 -4.27809
rtibia 76.9122
rfoot -5.12637 -11.7106
rtoes -34.9936
lfemur -51.995 -22.0682 -29.5815
ltibia 58.1507
lfoot -20.4526 -3.24676
ltoes 20.0949
768
root 0.844366 15.6079 3.0455 7.34276 -39.6348 13.0696
lowerback -1.63791 6.00971 6.28626
upperback 4.65681 7.80567 -1.5036
thorax 6.86965 4.21174 -4.40807
lowerneck 1.24569 -10.6498 -12.9792
upperneck 46.3827 -20.3661 9.60277
head 21.3445 -9.63604 3.81821
rclavicle 1.27222e-014 -1.59028e-014
rhumerus -20.7672 18.608 -95.4298
rradius 17.9537
rwrist 18.7972
rhand -28.4295 -54.4779
rfingers 7.12502
rthumb -1.80069 -84.45
lclavicle 1.27222e-014 -1.59028e-014
lhumerus -49.8955 -85.1737 126.396
lradius 83.3619
lwrist 27.8195
lhand 8.2514 -21.0434
lfingers 7.12502
lthumb 33.466 5.85726
rfemur -32.2763 -1.48728 -4.25297
rtibia 76.8765
rfoot -4.62639 -11.8669
rtoes -36.1323
lfemur -51.956 -22.054 -29.5761
ltibia 58.1479
lfoot -20.5034 -3.27061
ltoes 20.4194
769
root 0.839856 15.6079 3.04963 7.416 -39.669 13.0277
lowerback -1.6589 6.04949 6.37075
upperback 4.63833 7.85771 -1.55759
thorax 6.89026 4.24381 -4.50315
lowerneck 1.30895 -10.6509 -12.7963
upperneck 46.2597 -20.379 9.64322
head 21.1896 -9.60939 3.80429
rclavicle -5.48646e-014 2.06736e-014
rhumerus -20.7933 18.4508 -95.4783
rradius 17.9308
rwrist 18.8996
rhand -28.2063 -54.5167
rfingers 7.12502
rthumb -1.58516 -84.4905
lclavicle -5.48646e-014 2.06736e-014
lhumerus -50.718 -85.4901 127.113
lradius 83.486
lwrist 28.1005
lhand 8.0583 -21.0307
lfingers 7.12502
lthumb 33.2825 5.90946
rfemur -32.3463 -1.49285 -4.19342
rtibia 76.8775
rfoot -4.47816 -11.8209
rtoes -35.5901
lfemur -51.9857 -22.027 -29.4919
ltibia 58.1538
lfoot -20.5149 -3.15305
ltoes 18.8267
770
root 0.839036 15.6069 3.04444 7.59865 -39.6129 12.8511
lowerback -1.67673 6.0701 6.57235
upperback 4.64311 7.87593 -1.57754
thorax 6.94233 4.26513 -4.62883
lowerneck 1.31459 -10.6784 -12.5739
upperneck 46.1513 -20.3946 9.60034
head 21.0352 -9.57911 3.73576
rclavicle -6.83819e-014 3.18055e-014
rhumerus -20.7824 18.3722 -95.5102
rradius 18.0408
rwrist 18.8913
rhand -27.9164 -54.8143
rfingers 7.12502
rthumb -1.30516 -84.79
lclavicle -6.83819e-014 3.18055e-014
lhumerus -50.3625 -85.7672 126.673
lradius 83.6483
lwrist 28.4098
lhand 9.05592 -20.6743
lfingers 7.12502
lthumb 34.2304 6.058
rfemur -32.4656 -1.50586 -3.98257
rtibia 76.9204
rfoot -4.21671 -11.9435
rtoes -34.361
lfemur -52.1319 -22.0028 -29.2663
ltibia 58.1835
lfoot -20.4551 -3.16332
ltoes 17.8916
771
root 0.837986 15.6103 3.03528 7.71796 -39.5338 12.6711
lowerback -1.56644 6.05522 6.70526
upperback 4.62602 7.85544 -1.55577
thorax 6.87454 4.25919 -4.69375
lowerneck 1.33118 -10.689 -12.4494
upperneck 46.1276 -20.3836 9.52765
head 20.9575 -9.55936 3.67898
rclavicle -1.02573e-013 4.45278e-014
rhumerus -20.8374 18.4638 -95.5691
rradius 18.1403
rwrist 18.828
rhand -27.8225 -55.0127
rfingers 7.12502
rthumb -1.2145 -84.9889
lclavicle -1.02573e-013 4.45278e-014
lhumerus -50.1631 -85.8783 126.43
lradius 83.7077
lwrist 28.4719
lhand 10.1032 -20.4364
lfingers 7.12502
lthumb 35.2242 6.06699
rfemur -32.5154 -1.49669 -3.74386
rtibia 76.9552
rfoot -3.86894 -12.1512
rtoes -33.7038
lfemur -52.2122 -22.0177 -29.0578
ltibia 58.222
lfoot -20.4342 -3.03634
ltoes 16.8971
